<?xml version="1.0" encoding="UTF-8" standalone="no"?>
<!DOCTYPE svg PUBLIC "-//W3C//DTD SVG 1.1//EN" "http://www.w3.org/Graphics/SVG/1.1/DTD/svg11.dtd">
<svg width="100%" height="100%" viewBox="0 0 208 206" version="1.1" xmlns="http://www.w3.org/2000/svg" xmlns:xlink="http://www.w3.org/1999/xlink" xml:space="preserve" xmlns:serif="http://www.serif.com/" style="fill-rule:evenodd;clip-rule:evenodd;stroke-linejoin:round;stroke-miterlimit:2;">
    <g>
        <g transform="matrix(1,0,0,1,2.89366,1.70095)">
            <g>
                <path d="M100.99,30.2C107.54,31 113.24,35.92 118.92,39.07C135.4,48.36 153.36,55.21 171.4,60.77C167.34,61.23 163.31,61.94 159.27,62.58C151.36,55.84 142.3,50.6 132.27,47.75C125.76,45.78 119.33,45.59 112.68,44.53C111.11,48.64 109.17,52.21 104.89,53.98C100.7,55.78 97.14,54.41 93.05,53.19C86.55,55.29 79.99,56.87 73.77,59.78C60.45,65.53 48.95,75.15 41.48,87.64C37.58,84.94 34.46,81.71 29.79,80.25C50.65,73.21 71.87,61.14 85.58,43.54C87.55,41.17 88.39,38.46 89.87,35.83C91.97,32 96.76,29.93 100.99,30.2Z" style="fill:rgb(232,109,34);fill-rule:nonzero;"/>
                <path d="M110.51,51.67C113.05,62.86 116.84,73.67 121.35,84.21C120.64,84.96 119.93,85.71 119.22,86.47C113.43,76.131 107.45,65.95 100.51,56.33C102.97,55.66 105.38,55.01 107.62,53.77C108.59,53.08 109.56,52.38 110.51,51.67Z" style="fill:rgb(232,109,34);fill-rule:nonzero;"/>
                <path d="M176.04,62.09C179.67,62.27 183.08,62.62 186,65.01C190.7,68.68 192.37,75.15 189.8,80.58C187.83,84.67 184.47,87.15 179.96,87.74C157.53,90.88 136.71,100.91 119.57,115.61C106.12,127.24 94.2,140.911 84.61,155.9C85.51,148.96 83.8,142.83 81.12,136.54C89.39,123.22 98.28,110.45 108.7,98.69C118.97,87.41 130.34,77.021 144.01,70C153.77,65.1 165,61.37 176.04,62.09Z" style="fill:rgb(141,224,20);fill-rule:nonzero;"/>
                <path d="M31.74,82.17C35.31,83.81 39.1,86.36 41.92,89.1C51.94,99.26 61.99,110.01 70.42,121.54C75.42,128.39 80.31,136.21 82.65,144.4C84.54,151.16 82.92,157.76 80.19,164C78.25,167.88 75.64,171.97 71.27,173.35C64.879,175.83 57.45,172.08 55.07,165.8C52.61,160.23 55.11,153.39 60.25,150.32C62.59,148.64 66.36,147.36 67.76,144.77C68.67,142.26 67.89,139.67 66.5,137.51C64.1,133.8 60.51,130.62 57.11,127.84C48.99,121.27 39.79,115.59 30.85,110.2C27.63,108.19 24.13,106.82 20.72,105.2C16.81,103.32 14.56,99.06 14.11,94.88C13.98,91.26 15.43,87.54 18.02,85.01C21.38,81.43 27.26,80.53 31.74,82.17Z" style="fill:rgb(141,224,20);fill-rule:nonzero;"/>
                <path d="M178.93,89.41C175.66,95.37 172.37,101.16 170.41,107.72C166.22,120.57 166.49,133.68 168.33,146.91C170.85,150.48 172.81,153.99 171.79,158.53C170.47,166.4 161.3,171.55 154.03,168C151.34,166.8 149.22,163.54 146.24,163.67C142.17,163.27 138.09,162.94 134.02,162.51C115.68,161.1 97.32,162.74 79.49,167.22C80.88,163.75 82.55,160.71 84.67,157.63C94.93,160.05 105.48,160.78 115.99,159.94C126.46,159.3 136.05,156.43 145.92,153.1C147.99,149.41 150.86,146.52 154.14,143.89C156.32,139.73 158.72,135.81 160.34,131.37C165.14,118.53 166.17,105.27 166.78,91.71C170.79,90.69 174.81,89.88 178.93,89.41Z" style="fill:rgb(232,109,34);fill-rule:nonzero;"/>
                <path d="M133.06,107.04C139.77,118.31 147.17,129.14 155.44,139.33C152.48,143.62 148.45,146.79 145.19,150.82C141.4,136.51 135.91,122.57 130.16,108.95C131.12,108.31 132.09,107.68 133.06,107.04Z" style="fill:rgb(232,109,34);fill-rule:nonzero;"/>
            </g>
            <g>
                <path d="M100.99,30.2C107.54,31 113.24,35.92 118.92,39.07C135.4,48.36 153.36,55.21 171.4,60.77C167.34,61.23 163.31,61.94 159.27,62.58C151.36,55.84 142.3,50.6 132.27,47.75C125.76,45.78 119.33,45.59 112.68,44.53C111.11,48.64 109.17,52.21 104.89,53.98C100.7,55.78 97.14,54.41 93.05,53.19C86.55,55.29 79.99,56.87 73.77,59.78C60.45,65.53 48.95,75.15 41.48,87.64C37.58,84.94 34.46,81.71 29.79,80.25C50.65,73.21 71.87,61.14 85.58,43.54C87.55,41.17 88.39,38.46 89.87,35.83C91.97,32 96.76,29.93 100.99,30.2Z" style="fill:rgb(232,109,34);fill-rule:nonzero;"/>
                <path d="M110.51,51.67C113.05,62.86 116.84,73.67 121.35,84.21C120.64,84.96 119.93,85.71 119.22,86.47C113.43,76.131 107.45,65.95 100.51,56.33C102.97,55.66 105.38,55.01 107.62,53.77C108.59,53.08 109.56,52.38 110.51,51.67Z" style="fill:rgb(232,109,34);fill-rule:nonzero;"/>
                <path d="M176.04,62.09C179.67,62.27 183.08,62.62 186,65.01C190.7,68.68 192.37,75.15 189.8,80.58C187.83,84.67 184.47,87.15 179.96,87.74C157.53,90.88 136.71,100.91 119.57,115.61C106.12,127.24 94.2,140.911 84.61,155.9C85.51,148.96 83.8,142.83 81.12,136.54C89.39,123.22 98.28,110.45 108.7,98.69C118.97,87.41 130.34,77.021 144.01,70C153.77,65.1 165,61.37 176.04,62.09Z" style="fill:rgb(141,224,20);fill-rule:nonzero;"/>
                <path d="M31.74,82.17C35.31,83.81 39.1,86.36 41.92,89.1C51.94,99.26 61.99,110.01 70.42,121.54C75.42,128.39 80.31,136.21 82.65,144.4C84.54,151.16 82.92,157.76 80.19,164C78.25,167.88 75.64,171.97 71.27,173.35C64.879,175.83 57.45,172.08 55.07,165.8C52.61,160.23 55.11,153.39 60.25,150.32C62.59,148.64 66.36,147.36 67.76,144.77C68.67,142.26 67.89,139.67 66.5,137.51C64.1,133.8 60.51,130.62 57.11,127.84C48.99,121.27 39.79,115.59 30.85,110.2C27.63,108.19 24.13,106.82 20.72,105.2C16.81,103.32 14.56,99.06 14.11,94.88C13.98,91.26 15.43,87.54 18.02,85.01C21.38,81.43 27.26,80.53 31.74,82.17Z" style="fill:rgb(141,224,20);fill-rule:nonzero;"/>
                <path d="M178.93,89.41C175.66,95.37 172.37,101.16 170.41,107.72C166.22,120.57 166.49,133.68 168.33,146.91C170.85,150.48 172.81,153.99 171.79,158.53C170.47,166.4 161.3,171.55 154.03,168C151.34,166.8 149.22,163.54 146.24,163.67C142.17,163.27 138.09,162.94 134.02,162.51C115.68,161.1 97.32,162.74 79.49,167.22C80.88,163.75 82.55,160.71 84.67,157.63C94.93,160.05 105.48,160.78 115.99,159.94C126.46,159.3 136.05,156.43 145.92,153.1C147.99,149.41 150.86,146.52 154.14,143.89C156.32,139.73 158.72,135.81 160.34,131.37C165.14,118.53 166.17,105.27 166.78,91.71C170.79,90.69 174.81,89.88 178.93,89.41Z" style="fill:rgb(232,109,34);fill-rule:nonzero;"/>
                <path d="M133.06,107.04C139.77,118.31 147.17,129.14 155.44,139.33C152.48,143.62 148.45,146.79 145.19,150.82C141.4,136.51 135.91,122.57 130.16,108.95C131.12,108.31 132.09,107.68 133.06,107.04Z" style="fill:rgb(232,109,34);fill-rule:nonzero;"/>
            </g>
        </g>
    </g>
</svg>
