<?xml version="1.0" encoding="UTF-8" standalone="no"?>
<!DOCTYPE svg PUBLIC "-//W3C//DTD SVG 1.1//EN" "http://www.w3.org/Graphics/SVG/1.1/DTD/svg11.dtd">
<svg width="100%" height="100%" viewBox="0 0 915 688" version="1.1" xmlns="http://www.w3.org/2000/svg" xmlns:xlink="http://www.w3.org/1999/xlink" xml:space="preserve" xmlns:serif="http://www.serif.com/" style="fill-rule:evenodd;clip-rule:evenodd;stroke-linejoin:round;stroke-miterlimit:2;">
    <circle cx="772.098" cy="242.425" r="21.92" style="fill:rgb(171,4,51);fill-opacity:0.4;"/>
    <circle cx="309.93" cy="112.501" r="31.248" style="fill:rgb(171,4,51);fill-opacity:0.4;"/>
    <circle cx="252.098" cy="127.425" r="21.92" style="fill:rgb(171,4,51);fill-opacity:0.4;"/>
    <g transform="matrix(1,0,0,1,-142.592,-106.213)">
        <path d="M933.049,593.762C915.729,612.724 915.1,640.347 915.1,640.347C915.1,640.347 942.552,637.225 959.872,618.263C977.192,599.3 977.821,571.678 977.821,571.678C977.821,571.678 950.369,574.8 933.049,593.762Z" style="fill:rgb(63,61,86);fill-rule:nonzero;"/>
    </g>
    <g transform="matrix(1,0,0,1,-142.592,-106.213)">
        <path d="M942.833,599.218C937.592,624.36 915.561,641.034 915.561,641.034C915.561,641.034 902.027,616.946 907.268,591.805C912.509,566.663 934.54,549.989 934.54,549.989C934.54,549.989 948.074,574.077 942.833,599.218Z" style="fill:rgb(171,4,51);fill-rule:nonzero;"/>
    </g>
    <path d="M777.746,233.581L777.746,533.289L677.843,615.818L166.746,615.818L166.746,301.631L315.876,233.581L777.746,233.581Z" style="fill:rgb(249,249,249);fill-rule:nonzero;"/>
    <path d="M777.746,233.581L777.746,234.782L741.882,258.788L677.843,301.631L166.746,301.631L315.876,233.581L777.746,233.581Z" style="fill-opacity:0.1;fill-rule:nonzero;"/>
    <path d="M777.746,233.581L777.746,533.289L677.843,615.818L678.567,300.907L741.882,258.788L777.167,233.581L777.746,233.581Z" style="fill-opacity:0.1;fill-rule:nonzero;"/>
    <path d="M643.094,274.845L331.803,274.845L354.969,261.814L653.23,261.814L643.094,274.845Z" style="fill:rgb(47,46,65);fill-rule:nonzero;"/>
    <g transform="matrix(1,0,0,1,-142.592,-106.213)">
        <path d="M1054.35,738.332C1054.35,738.332 1060.39,763.568 1054.9,764.666C1049.41,765.763 1022.53,765.409 1015.95,766.506C1009.37,767.603 995.65,765.763 995.65,760.825C995.65,755.888 1009.91,752.596 1009.91,752.596C1009.91,752.596 1030.21,741.624 1030.76,741.075C1031.31,740.527 1054.35,738.332 1054.35,738.332Z" style="fill:rgb(47,46,65);fill-rule:nonzero;"/>
    </g>
    <g transform="matrix(1,0,0,1,-142.592,-106.213)">
        <path d="M1049.41,589.657C1049.41,589.657 1047.77,608.31 1047.77,609.956C1047.77,611.602 1049.41,637.387 1047.77,638.484C1046.12,639.581 1048.87,647.262 1048.87,650.005C1048.87,652.748 1057.64,698.283 1055.45,715.839C1053.26,733.395 1058.74,731.749 1057.1,733.395C1055.45,735.04 1055.45,735.04 1055.45,738.332C1055.45,741.624 1037.89,744.367 1037.89,744.367L1018.69,623.123L1028.57,586.914L1049.41,589.657Z" style="fill:rgb(87,90,137);fill-rule:nonzero;"/>
    </g>
    <g transform="matrix(1,0,0,1,-142.592,-106.213)">
        <path d="M1049.41,589.657C1049.41,589.657 1047.77,608.31 1047.77,609.956C1047.77,611.602 1049.41,637.387 1047.77,638.484C1046.12,639.581 1048.87,647.262 1048.87,650.005C1048.87,652.748 1057.64,698.283 1055.45,715.839C1053.26,733.395 1058.74,731.749 1057.1,733.395C1055.45,735.04 1055.45,735.04 1055.45,738.332C1055.45,741.624 1037.89,744.367 1037.89,744.367L1018.69,623.123L1028.57,586.914L1049.41,589.657Z" style="fill-opacity:0.1;fill-rule:nonzero;"/>
    </g>
    <g transform="matrix(1,0,0,1,-142.592,-106.213)">
        <path d="M1046.67,746.013C1046.67,746.013 1052.16,765.763 1046.67,766.86C1041.18,767.957 1014.3,765.603 1007.72,766.7C1001.14,767.798 987.421,767.957 987.421,763.02C987.421,758.082 1001.69,754.791 1001.69,754.791C1001.69,754.791 1021.98,743.818 1022.53,743.27C1023.08,742.721 1046.67,746.013 1046.67,746.013Z" style="fill:rgb(47,46,65);fill-rule:nonzero;"/>
    </g>
    <g transform="matrix(1,0,0,1,-142.592,-106.213)">
        <path d="M1054.35,567.713C1054.35,567.713 1060.94,583.622 1053.26,591.852C1045.57,600.081 1036.8,616.539 1036.8,617.637C1036.8,618.734 1052.16,727.908 1049.96,735.04C1047.77,742.172 1048.32,746.561 1048.87,747.659C1049.41,748.756 1043.38,754.791 1036.8,754.791C1030.21,754.791 1020.34,749.853 1019.24,745.464C1018.14,741.075 1020.89,703.221 1020.34,696.089C1019.79,688.957 1017.05,678.533 1015.95,676.339C1014.85,674.144 1008.82,671.95 1007.72,665.366C1006.62,658.783 997.845,574.845 1000.59,572.102C1003.33,569.358 1054.35,567.713 1054.35,567.713Z" style="fill:rgb(87,90,137);fill-rule:nonzero;"/>
    </g>
    <g transform="matrix(1,0,0,1,-13.724,5.24715)">
        <circle cx="870.066" cy="316.665" r="18.653" style="fill:rgb(255,185,185);"/>
    </g>
    <g transform="matrix(0.930406,-0.366529,0.366529,0.930406,-230.828,291.329)">
        <path d="M1024.18,432.204C1024.18,432.204 1020.34,452.503 1023.08,454.698C1025.82,456.892 1002.23,460.184 1002.23,460.184C1002.23,460.184 999.491,433.302 998.942,430.559C998.393,427.816 1024.18,432.204 1024.18,432.204Z" style="fill:rgb(255,185,185);fill-rule:nonzero;"/>
    </g>
    <g transform="matrix(1,0,0,1,-142.592,-106.213)">
        <path d="M998.942,458.538C998.942,458.538 1005.52,439.336 1032.41,444.823C1032.41,444.823 1037.35,446.468 1035.7,448.114C1034.05,449.76 1032.41,449.76 1034.6,451.406C1036.8,453.052 1039.54,451.406 1037.89,453.052C1036.25,454.698 1052.71,464.573 1051.61,483.226C1050.51,501.879 1055.45,528.212 1051.61,532.601C1047.77,536.99 1054.35,556.192 1053.26,560.032C1052.16,563.872 1059.84,568.81 1056.55,570.456C1053.26,572.101 994.004,581.977 992.359,570.456C990.713,558.935 991.81,567.164 990.164,564.421C988.518,561.678 987.97,556.74 989.067,550.705C990.164,544.671 992.907,529.858 991.81,524.372C990.713,518.886 991.81,472.802 995.102,467.316C998.393,461.83 998.942,458.538 998.942,458.538Z" style="fill:rgb(171,4,51);fill-rule:nonzero;"/>
    </g>
    <g transform="matrix(1,0,0,1,-142.592,-106.213)">
        <path d="M1010.46,592.4C1010.46,592.4 1018.69,623.671 1008.27,623.671C997.845,623.671 998.393,591.303 998.393,591.303L1010.46,592.4Z" style="fill:rgb(255,185,185);fill-rule:nonzero;"/>
    </g>
    <g transform="matrix(0.352244,-0.935908,0.935908,0.352244,108.483,1123.97)">
        <path d="M1004.43,422.878C1004.43,424.469 1006.73,425.478 1010.3,425.709L1010.31,425.709C1011.82,425.795 1013.34,425.766 1014.85,425.621C1017.13,425.413 1018.08,427.558 1018.47,430.389C1019.1,435.057 1018.22,441.602 1019.24,442.628C1020.66,444.044 1030.98,442.623 1034.2,439.413C1034.7,438.963 1035.04,438.356 1035.15,437.691C1035.49,435.731 1036.46,433.934 1037.9,432.572C1039.81,430.493 1042.52,428.189 1045.57,424.524C1051.06,417.94 1045.57,417.392 1043.93,412.454C1042.28,407.517 1039.54,405.871 1039.54,402.579C1039.54,399.288 1026.92,396.544 1016.5,397.093C1006.07,397.642 1008.27,410.808 1008.27,410.808C1008.27,410.808 1007.65,412.399 1006.91,414.451C1005.91,417.026 1005.09,419.67 1004.47,422.362C1004.45,422.533 1004.43,422.705 1004.43,422.878Z" style="fill:rgb(47,46,65);fill-rule:nonzero;"/>
    </g>
    <g transform="matrix(1,0,0,1,-142.592,-106.213)">
        <path d="M1006.62,466.767C1006.62,466.767 1025.28,465.67 1026.92,493.101C1028.57,520.532 1028.02,546.317 1028.02,546.865C1028.02,547.414 1020.34,599.532 1013.21,599.532C1006.07,599.532 1000.59,598.435 998.942,595.692C997.296,592.949 1003.33,553.449 1003.33,553.449C1003.33,553.449 1006.07,511.754 1001.69,498.587C997.296,485.42 996.748,468.413 1006.62,466.767Z" style="fill-opacity:0.1;fill-rule:nonzero;"/>
    </g>
    <g transform="matrix(1,0,0,1,-142.592,-106.213)">
        <path d="M1003.88,464.024C1003.88,464.024 1022.53,462.927 1024.18,490.358C1025.82,517.789 1025.28,543.573 1025.28,544.122C1025.28,544.671 1017.6,596.789 1010.46,596.789C1003.33,596.789 997.845,595.692 996.199,592.949C994.553,590.206 1000.59,550.705 1000.59,550.705C1000.59,550.705 1003.33,509.011 998.942,495.844C994.553,482.677 994.004,465.67 1003.88,464.024Z" style="fill:rgb(171,4,51);fill-rule:nonzero;"/>
    </g>
    <g transform="matrix(1,0,0,1,-142.592,-106.213)">
        <path d="M694.573,195.854C694.573,195.854 686.444,172.822 680.573,180.047C674.702,187.273 689.605,199.467 689.605,199.467L694.573,195.854Z" style="fill:rgb(160,97,106);fill-rule:nonzero;"/>
    </g>
    <g transform="matrix(1,0,0,1,-142.592,-106.213)">
        <path d="M732.96,173.273L728.07,175.086C728.07,175.086 725.734,185.467 726.638,187.273C727.541,189.08 727.992,187.725 726.638,191.338C725.283,194.951 721.218,204.435 720.767,205.789C720.315,207.144 694.573,197.209 694.573,192.241C694.573,192.241 689.154,198.564 686.444,199.918C686.444,199.918 716.25,221.596 720.315,224.306C724.379,227.015 726.638,225.66 730.25,222.499C733.863,219.338 749.218,193.144 749.218,193.144L732.96,173.273Z" style="fill:rgb(232,120,50);fill-rule:nonzero;"/>
    </g>
    <g transform="matrix(1,0,0,1,-142.592,-106.213)">
        <path d="M719.863,333.596C719.863,333.596 720.315,338.564 721.218,339.015C722.122,339.467 728.896,350.757 721.218,353.015C713.541,355.273 709.025,354.37 707.218,355.274C705.412,356.177 673.799,357.983 673.347,353.015C672.896,348.048 688.702,347.144 688.702,347.144C688.702,347.144 703.154,337.661 705.412,332.693C707.67,327.725 719.863,333.596 719.863,333.596Z" style="fill:rgb(47,46,65);fill-rule:nonzero;"/>
    </g>
    <g transform="matrix(1,0,0,1,-142.592,-106.213)">
        <path d="M811.541,342.628C811.541,342.628 822.38,361.145 819.67,363.403C816.96,365.661 790.571,373.89 786.702,374.241C781.734,374.693 778.122,370.628 782.186,368.37C786.251,366.112 794.831,356.628 794.831,353.467L794.831,345.338L811.541,342.628Z" style="fill:rgb(47,46,65);fill-rule:nonzero;"/>
    </g>
    <g transform="matrix(1,0,0,1,-142.592,-106.213)">
        <path d="M821.928,221.596C821.928,221.596 831.412,233.338 816.509,252.306L791.67,283.919C791.67,283.919 807.025,308.306 807.476,320.951C807.928,333.596 811.089,330.886 811.993,336.306C812.896,341.725 816.96,339.015 813.799,343.08C810.638,347.145 798.896,350.757 795.283,347.596C792.767,345.295 791.435,341.966 791.67,338.564C791.67,336.757 785.347,326.37 784.896,323.209C784.444,320.048 767.734,294.306 767.734,294.306C767.734,294.306 762.315,278.951 768.638,270.37C774.96,261.79 779.138,249.62 779.138,249.62C779.138,249.62 760.509,272.177 747.412,277.596C747.412,277.596 742.444,278.499 743.347,280.757C744.251,283.015 743.347,284.37 741.992,286.628C740.638,288.886 731.154,315.08 727.992,321.854C724.831,328.628 726.186,332.693 722.573,334.951C718.96,337.209 702.702,335.403 702.702,333.145C702.702,330.886 704.96,325.016 706.315,321.854C707.67,318.693 718.509,282.112 717.605,275.79C716.702,269.467 718.057,260.886 724.831,257.273C731.605,253.66 765.928,224.306 767.734,224.306C769.541,224.306 821.928,221.596 821.928,221.596Z" style="fill:rgb(47,46,65);fill-rule:nonzero;"/>
    </g>
    <circle cx="588.562" cy="25.512" r="18.968" style="fill:rgb(160,97,106);"/>
    <g transform="matrix(1,0,0,1,-142.592,-106.213)">
        <path d="M746.509,133.531C746.509,133.531 752.38,143.918 759.605,145.273C766.831,146.628 740.638,167.402 740.638,167.402C740.638,167.402 734.315,147.531 728.896,146.628C723.476,145.725 746.509,133.531 746.509,133.531Z" style="fill:rgb(160,97,106);fill-rule:nonzero;"/>
    </g>
    <g transform="matrix(1,0,0,1,-142.592,-106.213)">
        <path d="M727.992,175.983C727.992,181.854 745.605,198.564 745.605,198.564L762.315,212.564C762.315,212.564 762.767,217.531 764.573,217.983C766.38,218.435 768.638,218.435 766.831,221.144C765.025,223.854 760.509,229.725 764.573,230.628C765.799,230.815 767.033,230.932 768.272,230.98C769.356,231.044 770.629,231.102 772.061,231.157C775.403,231.274 779.585,231.351 784.115,231.319C785.402,231.315 786.711,231.3 788.044,231.274C805.119,230.935 824.9,228.971 823.283,222.499C820.573,211.66 822.38,208.047 816.509,202.176C810.638,196.306 801.154,175.983 801.154,175.983C801.154,175.983 782.186,143.918 766.38,143.918L763.096,143.056C759.976,142.234 756.658,143.508 754.891,146.208C751.72,151.036 746.721,158.289 743.799,160.628C739.283,164.241 738.578,161.649 738.578,161.649C738.578,161.649 727.992,170.112 727.992,175.983Z" style="fill:rgb(232,120,50);fill-rule:nonzero;"/>
    </g>
    <g transform="matrix(1,0,0,1,-142.592,-106.213)">
        <path d="M768.186,244.628C768.186,244.628 755.089,264.951 763.218,268.564C771.347,272.177 775.864,247.338 775.864,247.338L768.186,244.628Z" style="fill:rgb(160,97,106);fill-rule:nonzero;"/>
    </g>
    <g transform="matrix(1,0,0,1,-142.592,-106.213)">
        <path d="M743.554,129.582C742.826,129.49 742.596,128.572 742.473,127.849C741.817,123.974 738.93,120.301 735.051,119.675C733.568,119.478 732.06,119.6 730.628,120.032C728.577,120.595 726.651,121.543 724.954,122.825C724.124,123.584 723.163,124.187 722.118,124.605C721.407,124.814 718.385,126.158 717.679,126.385C716.126,126.885 714.841,128.51 713.243,128.188C711.713,127.88 711.132,126.033 710.886,124.493C710.326,120.982 712.335,115.745 714.333,112.804C715.849,110.573 718.414,109.289 720.979,108.453C723.984,107.541 727.071,106.928 730.197,106.622C734.416,106.124 738.785,105.859 742.829,107.163C746.872,108.467 750.553,111.658 751.308,115.838C751.465,116.709 751.495,117.601 751.688,118.465C752.158,120.572 753.552,122.343 754.365,124.343C755.551,127.312 755.425,130.648 754.02,133.519C752.894,135.783 750.935,137.96 751.358,140.453L747.873,137.705C746.839,137.118 746.352,135.877 746.71,134.743L747.216,130.379C747.392,129.589 747.312,128.763 746.99,128.02C745.441,125.314 744.768,129.735 743.554,129.582Z" style="fill:rgb(47,46,65);fill-rule:nonzero;"/>
    </g>
    <g transform="matrix(1,0,0,1,-142.592,-106.213)">
        <path d="M776.315,213.467L772.061,231.157C776.351,231.31 782.028,231.391 788.044,231.274C789.561,226.722 791.011,221.975 792.122,217.531C796.186,201.273 789.412,176.435 785.799,164.693C782.186,152.951 773.154,149.789 773.154,149.789C769.451,151.092 765.953,152.916 762.767,155.209C756.896,159.273 776.315,213.467 776.315,213.467Z" style="fill-opacity:0.1;fill-rule:nonzero;"/>
    </g>
    <g transform="matrix(1,0,0,1,-142.592,-106.213)">
        <path d="M772.702,212.564L768.272,230.98C769.356,231.044 770.629,231.102 772.061,231.157C775.403,231.274 779.585,231.351 784.115,231.319C785.745,226.482 787.321,221.379 788.509,216.628C792.573,200.37 785.799,175.531 782.186,163.789C778.573,152.047 770.67,164.918 770.67,164.918C770.67,164.918 773.831,157.241 767.96,161.305C762.089,165.37 772.702,212.564 772.702,212.564Z" style="fill-opacity:0.1;fill-rule:nonzero;"/>
    </g>
    <g transform="matrix(1,0,0,1,-142.592,-106.213)">
        <path d="M771.347,148.886C771.347,148.886 780.38,152.047 783.993,163.789C787.605,175.531 794.38,200.37 790.315,216.628C786.251,232.886 777.67,253.209 777.67,253.209C777.67,253.209 769.089,246.886 765.928,248.241L774.509,212.564C774.509,212.564 755.089,158.37 760.96,154.305C764.147,152.013 767.644,150.188 771.347,148.886Z" style="fill:rgb(232,120,50);fill-rule:nonzero;"/>
    </g>
    <path d="M635.488,269.199L510.541,8.828L301.62,109.085L378.456,269.199L635.488,269.199Z" style="fill:rgb(242,242,242);fill-rule:nonzero;"/>
    <g transform="matrix(0.901565,-0.432643,0.432643,0.901565,-194.759,159.122)">
        <rect x="495.48" y="243.491" width="123.081" height="7.639" style="fill:rgb(63,61,86);"/>
    </g>
    <g transform="matrix(0.901565,-0.432643,0.432643,0.901565,-218.354,177.859)">
        <rect x="524.86" y="304.714" width="123.081" height="7.639" style="fill:rgb(63,61,86);"/>
    </g>
    <g transform="matrix(0.901565,-0.432643,0.432643,0.901565,-165.512,196.255)">
        <rect x="637.968" y="186.326" width="30.558" height="30.558" style="fill:rgb(63,61,86);"/>
    </g>
    <g transform="matrix(0.901565,-0.432643,0.432643,0.901565,-189.108,214.992)">
        <rect x="667.347" y="247.548" width="30.558" height="30.558" style="fill:rgb(63,61,86);"/>
    </g>
    <g id="b6a4aa65-5bff-4dd4-a595-827386906092">
        <g transform="matrix(-0.977938,0.208896,-0.208896,-0.977938,341.065,1124.36)">
            <rect x="147.984" y="611.967" width="57.724" height="57.724" style="fill:rgb(242,242,242);"/>
        </g>
        <g id="ac286760-ef31-4470-8aba-995faff60c3b" transform="matrix(1,0,0,1,-142.592,-106.213)">
            <path d="M209.53,591.492C209.53,591.492 188.796,606.302 195.707,612.226C202.618,618.15 216.441,594.454 216.441,594.454L209.53,591.492Z" style="fill:rgb(255,185,185);fill-rule:nonzero;"/>
        </g>
        <g id="ad0ee0d5-d520-47bd-bca9-706ef112ee3c" transform="matrix(1,0,0,1,-142.592,-106.213)">
            <path d="M305.302,614.201C305.302,614.201 301.353,663.568 300.366,670.479C299.378,677.391 298.391,739.593 296.416,746.505C294.441,753.416 292.467,770.201 292.467,770.201L280.619,770.201C280.619,770.201 281.606,739.593 278.644,727.745C275.682,715.897 276.669,683.315 276.669,683.315C276.669,683.315 270.745,625.061 273.707,617.163C276.669,609.264 305.302,614.201 305.302,614.201Z" style="fill:rgb(255,185,185);fill-rule:nonzero;"/>
        </g>
        <g id="a2d865fc-f989-4a0f-bdfe-5d1a04b5cb09" transform="matrix(1,0,0,1,-142.592,-106.213)">
            <path d="M289.505,767.239C289.505,767.239 294.441,770.201 294.441,772.176C294.441,774.15 293.454,779.087 294.441,781.062C295.429,783.036 302.34,790.935 298.391,792.91C294.441,794.884 276.669,792.91 276.669,792.91C276.669,792.91 277.657,779.087 278.644,778.1C279.631,777.112 277.657,767.239 277.657,767.239L289.505,767.239Z" style="fill:rgb(47,46,65);fill-rule:nonzero;"/>
        </g>
        <g id="a5afd73e-dc2f-49f8-bb76-01b6bc8ff4ec" transform="matrix(1,0,0,1,-142.592,-106.213)">
            <path d="M229.826,612.991C229.826,612.991 228.571,662.5 228.828,669.477C229.084,676.453 223.537,738.416 224.775,745.497C226.013,752.577 226.215,769.476 226.215,769.476L237.998,770.72C237.998,770.72 240.229,740.178 244.418,728.706C248.608,717.234 251.046,684.728 251.046,684.728C251.046,684.728 263.052,627.419 260.935,619.253C258.819,611.087 229.826,612.991 229.826,612.991Z" style="fill:rgb(255,185,185);fill-rule:nonzero;"/>
        </g>
        <g id="bae9c969-98bd-41cd-ab49-dced4866e2f9" transform="matrix(1,0,0,1,-142.592,-106.213)">
            <path d="M229.472,766.842C229.472,766.842 224.252,769.269 224.044,771.233C223.837,773.197 224.301,778.21 223.112,780.07C221.922,781.93 214.22,789.06 217.94,791.438C221.661,793.816 239.542,793.718 239.542,793.718C239.542,793.718 240.011,779.868 239.133,778.782C238.255,777.697 241.255,768.085 241.255,768.085L229.472,766.842Z" style="fill:rgb(47,46,65);fill-rule:nonzero;"/>
        </g>
        <g id="efa1face-c8d6-4f61-8a17-c81461288bfc" transform="matrix(1,0,0,1,-142.592,-106.213)">
            <path d="M291.479,540.15C291.479,540.15 299.378,541.137 302.34,557.922C305.302,574.707 316.163,617.163 307.277,620.125C298.391,623.087 271.733,629.011 270.745,627.036C269.758,625.061 267.783,620.125 267.783,620.125C267.783,620.125 270.745,629.011 266.796,629.011C262.847,629.011 224.34,623.087 225.327,620.125C226.315,617.163 228.289,595.441 228.289,595.441C228.289,595.441 234.214,558.909 240.138,552.985C243.606,549.655 245.417,544.946 245.074,540.15L291.479,540.15Z" style="fill:rgb(47,46,65);fill-rule:nonzero;"/>
        </g>
        <g id="ba787e0e-2496-4127-9664-864bc1f1b460" transform="matrix(1,0,0,1,-142.592,-106.213)">
            <path d="M306.29,532.251C306.29,532.251 293.454,529.289 291.479,533.238C289.505,537.188 296.416,543.112 299.378,543.112C302.34,543.112 307.277,540.15 307.277,540.15L306.29,532.251Z" style="fill:rgb(255,185,185);fill-rule:nonzero;"/>
        </g>
        <circle id="af432612-84fe-4a80-a474-ad6710b59c23" cx="137.04" cy="324.342" r="17.772" style="fill:rgb(255,185,185);"/>
        <g id="fc691572-079c-4ac7-a111-0c7206f484e6" transform="matrix(1,0,0,1,-142.592,-106.213)">
            <path d="M276.669,443.39C276.669,443.39 273.707,457.213 275.682,457.213C277.657,457.213 260.872,466.099 260.872,466.099L248.036,464.124L244.087,458.2C244.087,458.2 264.821,444.377 264.821,436.479C264.821,428.58 276.669,443.39 276.669,443.39Z" style="fill:rgb(255,185,185);fill-rule:nonzero;"/>
        </g>
        <g id="a377c2ac-5aad-4dd5-94e4-d6887260be3a" transform="matrix(1,0,0,1,-142.592,-106.213)">
            <path d="M267.783,457.213C267.783,457.213 270.745,455.238 271.733,455.238L279.631,455.238C280.619,455.238 293.454,458.2 293.454,458.2L301.353,502.631C301.353,502.631 287.53,525.34 297.404,543.112C297.404,543.112 294.442,541.137 280.619,542.124C266.796,543.112 242.112,546.074 241.125,546.074C240.138,546.074 240.138,538.175 241.125,536.2C242.112,534.226 240.138,535.213 240.138,530.276C240.138,525.34 237.176,516.453 237.176,516.453L223.353,466.099C223.353,466.099 241.125,456.225 244.087,457.213C247.049,458.2 255.935,461.162 257.91,460.175C259.884,459.187 267.783,457.213 267.783,457.213Z" style="fill:rgb(171,4,51);fill-rule:nonzero;"/>
        </g>
        <g id="fd50713a-8150-4e39-832b-91f38638a5e4" transform="matrix(1,0,0,1,-142.592,-106.213)">
            <path d="M290.492,459.188L293.454,458.2C293.454,458.2 299.378,457.213 306.29,463.137C313.201,469.061 338.872,486.833 338.872,486.833C338.872,486.833 348.745,494.732 345.783,503.618C342.821,512.504 337.885,534.226 323.075,533.238C323.075,533.238 314.188,545.086 309.252,543.112C304.315,541.137 300.366,533.238 303.328,532.251C306.29,531.264 314.188,521.39 314.188,521.39L304.315,502.631L301.353,502.631L290.492,496.707L290.492,459.188Z" style="fill:rgb(171,4,51);fill-rule:nonzero;"/>
        </g>
        <g id="a85ddca5-281c-4897-a8aa-82a4133bac02" transform="matrix(1,0,0,1,-142.592,-106.213)">
            <path d="M231.251,465.112L223.353,466.099C223.353,466.099 216.441,469.061 217.429,481.896C218.416,494.732 211.505,552.985 214.467,559.897C214.467,559.897 204.593,593.466 206.568,594.454C208.543,595.441 220.391,601.365 219.403,597.416C218.416,593.466 230.264,565.821 230.264,565.821C230.264,565.821 244.087,551.01 238.163,530.276L238.163,513.491L231.251,465.112Z" style="fill:rgb(171,4,51);fill-rule:nonzero;"/>
        </g>
        <g id="eb14ef5a-0bc4-48da-8b11-b0e113a7ef46" transform="matrix(0.782617,0.622503,-0.622503,0.782617,182.148,-188.369)">
            <path d="M294.423,447.737L281.871,450.471L280.258,444.291L280.878,450.688L260.629,455.099L259.739,451.687L260.081,455.218L247.112,458.044L244.338,431.412C241.485,420.483 251.895,408.836 262.824,405.984L267.672,404.718C275.698,402.623 290.288,404.528 292.383,412.555C288.717,426.549 282.466,441.89 294.423,447.737Z" style="fill:rgb(47,46,65);fill-rule:nonzero;"/>
        </g>
    </g>
    <g transform="matrix(0.902478,-0.430736,0.430736,0.902478,250.978,7.86328)">
        <text x="184.986px" y="202.769px" style="font-family:'Arial-BoldMT', 'Arial', sans-serif;font-weight:700;font-size:36px;fill:rgb(0,255,19);">?</text>
    </g>
    <g transform="matrix(0.902478,-0.430736,0.430736,0.902478,280.5,69.5071)">
        <text x="184.986px" y="202.769px" style="font-family:'Arial-BoldMT', 'Arial', sans-serif;font-weight:700;font-size:36px;fill:rgb(0,255,19);">?</text>
    </g>
    <rect x="316.724" y="383.267" width="225.24" height="124.475" style="fill:rgb(37,37,37);"/>
    <text x="328.579px" y="429.481px" style="font-family:'Arial-BoldMT', 'Arial', sans-serif;font-weight:700;font-size:48px;fill:rgb(0,255,19);">Y<tspan x="357.946px 384.642px 411.337px 436.579px " y="429.481px 429.481px 429.481px 429.481px ">es :</tspan> 2</text>
    <g transform="matrix(1,0,0,1,-5.32907e-14,50.3826)">
        <text x="328.579px" y="429.481px" style="font-family:'Arial-BoldMT', 'Arial', sans-serif;font-weight:700;font-size:48px;fill:rgb(255,0,1);">No <tspan x="400.579px 436.579px " y="429.481px 429.481px "> :</tspan> 3</text>
    </g>
</svg>
