<?xml version="1.0" encoding="UTF-8" standalone="no"?>
<!DOCTYPE svg PUBLIC "-//W3C//DTD SVG 1.1//EN" "http://www.w3.org/Graphics/SVG/1.1/DTD/svg11.dtd">
<svg width="100%" height="100%" viewBox="0 0 512 512" version="1.1" xmlns="http://www.w3.org/2000/svg" xmlns:xlink="http://www.w3.org/1999/xlink" xml:space="preserve" xmlns:serif="http://www.serif.com/" style="fill-rule:evenodd;clip-rule:evenodd;stroke-linejoin:round;stroke-miterlimit:2;">
    <path d="M449.446,0C483.971,0 512,28.03 512,62.554L512,449.446C512,483.97 483.97,512 449.446,512L62.554,512C28.03,512 0,483.97 0,449.446L0,62.554C0,28.03 28.029,0 62.554,0L449.446,0ZM446,265.638C446,242.674 427.384,224.058 404.42,224.058C393.209,224.058 383.059,228.515 375.579,235.724C347.155,215.216 307.993,201.967 264.375,200.446L283.316,111.325L345.2,124.482C345.956,140.216 358.842,152.772 374.76,152.772C391.167,152.772 404.466,139.473 404.466,123.071C404.466,106.668 391.167,93.369 374.76,93.369C363.094,93.369 353.103,100.161 348.245,109.947L279.14,95.257C277.218,94.839 275.201,95.215 273.555,96.293C271.897,97.366 270.744,99.054 270.331,100.979L249.179,200.417C204.921,201.645 165.133,214.911 136.342,235.649C128.874,228.485 118.753,224.058 107.585,224.058C84.62,224.058 66,242.674 66,265.638C66,282.534 76.095,297.048 90.568,303.556C89.929,307.691 89.578,311.884 89.578,316.132C89.578,380.109 164.047,431.968 255.908,431.968C347.769,431.968 422.242,380.109 422.242,316.132C422.242,311.914 421.895,307.745 421.265,303.639C435.829,297.169 446,282.605 446,265.638ZM326.526,373.831C306.256,394.072 267.411,395.647 255.992,395.647C244.564,395.647 205.715,394.072 185.47,373.827C182.463,370.819 182.463,365.945 185.47,362.938C188.473,359.939 193.352,359.935 196.355,362.938C209.132,375.719 236.465,380.255 255.992,380.255C275.514,380.255 302.852,375.719 315.649,362.934C318.665,359.935 323.535,359.939 326.534,362.942C329.542,365.953 329.537,370.824 326.526,373.831ZM321.296,325.05C304.923,325.05 291.595,311.726 291.595,295.352C291.595,278.971 304.923,265.638 321.296,265.638C337.674,265.638 351.002,278.971 351.002,295.352C351.002,311.726 337.674,325.05 321.296,325.05ZM160.91,295.348C160.91,278.967 174.238,265.638 190.624,265.638C206.993,265.638 220.313,278.967 220.313,295.348C220.313,311.721 206.993,325.041 190.624,325.041C174.238,325.041 160.91,311.721 160.91,295.348Z" style="fill:white;"/>
</svg>
